<?xml version="1.0" encoding="utf-8"?>
<!-- Generator: Adobe Illustrator 24.1.2, SVG Export Plug-In . SVG Version: 6.00 Build 0)  -->
<svg version="1.1" id="Capa_1" xmlns="http://www.w3.org/2000/svg" xmlns:xlink="http://www.w3.org/1999/xlink" x="0px" y="0px"
	 viewBox="0 0 51.4 51.4" style="enable-background:new 0 0 51.4 51.4; fill:#000;" xml:space="preserve">
<g>
	<path d="M25.2,49.7c0-0.6-0.4-1-1-1c-6.1,0-11-4.9-11-11v-24h9L12.2,0l-10,13.7h9v24c0,7.2,5.8,13,13,13
		C24.8,50.7,25.2,50.3,25.2,49.7z"/>
	<path d="M26.2,1.7c0,0.6,0.4,1,1,1c6.1,0,11,4.9,11,11v24h-9l10,13.7l10-13.7h-9v-24c0-7.2-5.8-13-13-13
		C26.6,0.7,26.2,1.1,26.2,1.7z"/>
</g>
</svg>
