<?xml version="1.0" encoding="utf-8"?>
<!-- Generator: Adobe Illustrator 24.1.2, SVG Export Plug-In . SVG Version: 6.00 Build 0)  -->
<svg version="1.1" id="Capa_1" xmlns="http://www.w3.org/2000/svg" xmlns:xlink="http://www.w3.org/1999/xlink" x="0px" y="0px"
	 viewBox="0 0 439.6 439.6" style="enable-background:new 0 0 439.6 439.6;" xml:space="preserve">
<style type="text/css">
	.st0{fill:#FFFFFF;}
</style>
<g>
	<path class="st0" d="M399.6,148.5l-56.8-79.3l0,0l0,0c-9.4-13-24.7-20.7-40.9-20.7c-10.9,0-21.3,3.4-30.1,9.7
		c-4.6,3.3-8.7,7.5-12.1,12.3c-7.9-5-17.2-7.7-26.8-7.7c-10.7,0-20.9,3.3-29.5,9.6c-5.7,4.1-10.3,9.1-13.8,14.6
		c-6.8-3.3-14.4-5.1-22.2-5.2c-10.7,0-20.9,3.3-29.6,9.6c-3.9,2.8-7.3,6.1-10.2,9.8L119,89.3l-14.4-20c-3.1-4.3-4.8-6.6-5.9-8.1l0,0
		C90,49.6,76.4,43,61.2,43c-10.9,0-21.8,3.5-30.6,9.9c-10.9,7.9-18.1,19.6-20.3,32.9c-2.1,13.3,1,26.7,9,37.6c0,0,68,94,105.9,146.3
		c-2.7-0.4-5.5-0.6-8.3-0.6c-12.4,0-24.5,4.2-33.9,11.7c-9.9,8-16.5,19.4-18.6,32.2c-4.3,26.9,11.7,51.8,39.8,62.1
		c6.4,2.6,54.3,21.6,114.4,21.6c52.9,0,99.5-14.3,138.5-42.6c46.3-33.5,70.8-72.1,72.8-114.7C431.2,209.3,420.8,177.8,399.6,148.5z
		 M343.8,335.7c-40.6,29.4-85.7,38.2-125.2,38.2c-59.4,0-106.2-20-106.2-20c-17.2-6.2-28.4-20.3-25.6-37.4
		c2.4-15.2,15.2-24.8,30-24.8c1.8,0,3.7,0.1,5.6,0.4c0,0,22.1,3.5,33.9,5.4c1.6,0.3,3,0.4,4.2,0.4c8.6,0,9.3-5.5,7.7-7.6
		C167,288.6,37.7,109.9,37.7,109.9c-9-12.4-6.2-29.8,6.2-38.8c5.1-3.7,11.3-5.6,17.3-5.6c7.5,0,14.6,2.9,19.1,8.9
		c0,0,69.8,96.5,84.5,116.9c0,0,0,0.1,0.1,0.1l5.7,7.9c0.9,1.2,2.3,1.9,3.7,1.9c0.9,0,1.8-0.3,2.7-0.9c2-1.5,2.5-4.3,1-6.3
		l-33.4-46.2c-8.7-12.4-5.8-29.5,6.5-38.4c4.9-3.6,10.6-5.3,16.3-5.3c8.6,0,17.1,4,22.5,11.5l33.8,46.7c0.9,1.2,2.2,1.8,3.6,1.8
		c0.9,0,1.8-0.3,2.6-0.8c2-1.4,2.4-4.2,1-6.2L208.1,126c-8.2-11.3-2.9-27.2,8.4-35.4c4.9-3.6,10.6-5.3,16.2-5.3
		c8.6,0,17.1,4,22.5,11.5l21.9,30.3c0.8,1.2,2.2,1.8,3.5,1.8c0.9,0,1.8-0.3,2.5-0.8c1.9-1.4,1.8-5.1,0.3-7l-7.6-10.4
		c-7.5-10.3-2-26.3,8.9-34.2c5-3.6,10.9-5.4,16.7-5.4c8.6,0,17.2,3.9,22.5,11.3l56.9,79.4C409,200.3,435.2,269.5,343.8,335.7z"/>
</g>
</svg>
