<svg xmlns="http://www.w3.org/2000/svg" width="40" height="42" viewBox="0 0 40 42"><defs><clipPath id="pzfga"><path fill="#fff" d="M20 .583c11.105 0 20.108 9.19 20.108 20.524 0 11.335-9.003 20.524-20.108 20.524-11.106 0-20.108-9.19-20.108-20.524C-.108 9.772 8.894.583 20 .583z"/></clipPath><clipPath id="pzfgb"><path fill="#fff" d="M20 11.2c4.858 0 8.797 4.216 8.797 9.418 0 5.201-3.939 9.418-8.797 9.418-4.859 0-8.797-4.217-8.797-9.418 0-5.202 3.938-9.418 8.797-9.418z"/></clipPath></defs><g><g><path fill="#f9f9f9" d="M20 .583c11.105 0 20.108 9.19 20.108 20.524 0 11.335-9.003 20.524-20.108 20.524-11.106 0-20.108-9.19-20.108-20.524C-.108 9.772 8.894.583 20 .583z"/><path fill="none" stroke="#000" stroke-miterlimit="20" stroke-width="4" d="M20 .583c11.105 0 20.108 9.19 20.108 20.524 0 11.335-9.003 20.524-20.108 20.524-11.106 0-20.108-9.19-20.108-20.524C-.108 9.772 8.894.583 20 .583z" clip-path="url(&quot;#pzfga&quot;)"/></g><g><path fill="#fb6470" d="M20 11.2c4.858 0 8.797 4.216 8.797 9.418 0 5.201-3.939 9.418-8.797 9.418-4.859 0-8.797-4.217-8.797-9.418 0-5.202 3.938-9.418 8.797-9.418z"/><path fill="none" stroke="#000" stroke-miterlimit="20" stroke-width="4" d="M20 11.2c4.858 0 8.797 4.216 8.797 9.418 0 5.201-3.939 9.418-8.797 9.418-4.859 0-8.797-4.217-8.797-9.418 0-5.202 3.938-9.418 8.797-9.418z" clip-path="url(&quot;#pzfgb&quot;)"/></g></g></svg>